<svg width="193" height="37" viewBox="0 0 193 37" fill="none" xmlns="http://www.w3.org/2000/svg">
<g clip-path="url(#clip0_43_17766)">
<mask id="mask0_43_17766" style="mask-type:luminance" maskUnits="userSpaceOnUse" x="-48" y="-853" width="796" height="1033">
<path d="M-47.8848 179.768H747.442V-852.97H-47.8848V179.768Z" fill="white"/>
</mask>
<g mask="url(#mask0_43_17766)">
<path d="M41.0075 5.31748L37.2748 20.5012L33.5317 5.31748H22.7202V10.9243C21.4066 6.01785 16.5871 4.78726 12.2807 4.71736C7.03001 4.64877 1.21211 6.92397 1.01031 13.8669H8.27245C8.27245 11.7711 10.1915 10.5709 12.0038 10.6012C14.2288 10.5827 15.2523 11.5324 15.3038 13.0109C15.2273 14.2943 14.4702 15.1872 12.0222 15.1872H9.57954V20.2256H11.7967C13.0563 20.2256 14.8092 20.9114 14.8778 22.7052C14.9622 24.8432 13.4757 25.7823 11.6463 25.8008C8.38061 25.6794 7.5378 23.1708 7.5378 21.013H0C0.0316548 22.4665 -0.0158275 31.9405 11.798 31.8706C17.4576 31.922 21.5767 29.5426 22.7387 26.2624V31.2902H30.0088V14.9089L34.0289 31.2902H40.5247L44.5594 14.9273V31.3048H51.9772V5.31748H41.0075ZM22.744 20.4656C21.8181 18.5505 20.515 17.713 19.7816 17.4479C21.3208 16.7633 22.1267 15.8348 22.744 13.9843V20.4656Z" fill="#FF0000"/>
</g>
</g>
<path d="M65.9665 26.5871C64.8239 26.5871 63.8063 26.3907 62.9137 25.998C62.0261 25.6001 61.3248 25.0543 60.8096 24.3606C60.2995 23.6618 60.0368 22.8558 60.0215 21.9428H63.3574C63.3778 22.3254 63.5028 22.662 63.7324 22.9528C63.967 23.2384 64.2781 23.4603 64.6658 23.6184C65.0535 23.7765 65.4896 23.8556 65.9742 23.8556C66.4792 23.8556 66.9255 23.7663 67.3132 23.5878C67.7008 23.4093 68.0043 23.1619 68.2237 22.8456C68.443 22.5294 68.5527 22.1647 68.5527 21.7515C68.5527 21.3332 68.4353 20.9634 68.2007 20.6421C67.9712 20.3156 67.6396 20.0606 67.206 19.8769C66.7776 19.6933 66.2675 19.6015 65.6758 19.6015H64.2144V17.1684H65.6758C66.1757 17.1684 66.6169 17.0817 66.9994 16.9083C67.3871 16.7348 67.6881 16.4951 67.9023 16.189C68.1165 15.8779 68.2237 15.5157 68.2237 15.1026C68.2237 14.7098 68.1293 14.3655 67.9406 14.0696C67.7569 13.7687 67.4968 13.534 67.1601 13.3657C66.8286 13.1974 66.4409 13.1132 65.9971 13.1132C65.5483 13.1132 65.1376 13.1948 64.7653 13.3581C64.3929 13.5162 64.0945 13.7432 63.8701 14.039C63.6456 14.3349 63.5258 14.6817 63.5105 15.0796H60.3352C60.3505 14.1767 60.6081 13.381 61.108 12.6924C61.6078 12.0038 62.2812 11.4656 63.1279 11.078C63.9797 10.6852 64.9413 10.4888 66.0124 10.4888C67.0938 10.4888 68.04 10.6852 68.8511 11.078C69.6621 11.4707 70.292 12.0012 70.7409 12.6694C71.1949 13.3326 71.4193 14.0773 71.4142 14.9036C71.4193 15.781 71.1464 16.5129 70.5955 17.0995C70.0498 17.6861 69.3382 18.0585 68.4608 18.2166V18.339C69.6136 18.487 70.491 18.8874 71.0929 19.5403C71.6999 20.1881 72.0008 20.9991 71.9957 21.9734C72.0008 22.866 71.7432 23.6592 71.223 24.3529C70.7078 25.0467 69.9962 25.5925 69.0882 25.9903C68.1803 26.3882 67.1397 26.5871 65.9665 26.5871Z" fill="black"/>
<path d="M73.8226 10.7031H77.9084L82.2237 21.2312H82.4074L86.7227 10.7031H90.8085V26.3729H87.5949V16.1737H87.4649L83.4097 26.2964H81.2214L77.1662 16.1355H77.0362V26.3729H73.8226V10.7031Z" fill="black"/>
<path d="M111.058 16.189H107.707C107.645 15.7555 107.52 15.3703 107.332 15.0337C107.143 14.6919 106.901 14.4012 106.605 14.1614C106.309 13.9217 105.967 13.7381 105.58 13.6106C105.197 13.483 104.781 13.4193 104.332 13.4193C103.521 13.4193 102.815 13.6208 102.213 14.0237C101.611 14.4216 101.144 15.0031 100.813 15.7682C100.481 16.5282 100.315 17.4515 100.315 18.538C100.315 19.6551 100.481 20.5936 100.813 21.3536C101.149 22.1137 101.619 22.6875 102.221 23.0752C102.823 23.4628 103.519 23.6567 104.309 23.6567C104.753 23.6567 105.164 23.598 105.541 23.4807C105.924 23.3634 106.263 23.1925 106.559 22.9681C106.855 22.7385 107.1 22.4605 107.293 22.1341C107.492 21.8076 107.63 21.4353 107.707 21.017L111.058 21.0323C110.971 21.7515 110.754 22.4452 110.408 23.1134C110.066 23.7766 109.604 24.3708 109.023 24.8962C108.446 25.4165 107.758 25.8296 106.957 26.1357C106.161 26.4366 105.261 26.5871 104.256 26.5871C102.858 26.5871 101.609 26.2709 100.507 25.6384C99.4101 25.0059 98.5429 24.0903 97.9053 22.8916C97.2728 21.6929 96.9566 20.2417 96.9566 18.538C96.9566 16.8292 97.2779 15.3754 97.9206 14.1767C98.5633 12.978 99.4356 12.065 100.537 11.4376C101.639 10.8051 102.879 10.4888 104.256 10.4888C105.164 10.4888 106.005 10.6164 106.781 10.8714C107.561 11.1264 108.252 11.4988 108.854 11.9885C109.456 12.4731 109.946 13.0673 110.323 13.7712C110.706 14.4751 110.951 15.2811 111.058 16.189Z" fill="black"/>
<path d="M118.036 26.6024C116.847 26.6024 115.82 26.3499 114.953 25.8449C114.09 25.3349 113.425 24.6258 112.956 23.7179C112.486 22.8048 112.252 21.7464 112.252 20.5426C112.252 19.3286 112.486 18.2676 112.956 17.3597C113.425 16.4466 114.09 15.7376 114.953 15.2326C115.82 14.7225 116.847 14.4675 118.036 14.4675C119.224 14.4675 120.25 14.7225 121.112 15.2326C121.979 15.7376 122.647 16.4466 123.116 17.3597C123.586 18.2676 123.82 19.3286 123.82 20.5426C123.82 21.7464 123.586 22.8048 123.116 23.7179C122.647 24.6258 121.979 25.3349 121.112 25.8449C120.25 26.3499 119.224 26.6024 118.036 26.6024ZM118.051 24.0775C118.592 24.0775 119.043 23.9245 119.406 23.6184C119.768 23.3073 120.041 22.8839 120.224 22.3483C120.413 21.8127 120.507 21.2032 120.507 20.5197C120.507 19.8361 120.413 19.2266 120.224 18.691C120.041 18.1554 119.768 17.732 119.406 17.4209C119.043 17.1097 118.592 16.9542 118.051 16.9542C117.506 16.9542 117.046 17.1097 116.674 17.4209C116.307 17.732 116.029 18.1554 115.84 18.691C115.656 19.2266 115.565 19.8361 115.565 20.5197C115.565 21.2032 115.656 21.8127 115.84 22.3483C116.029 22.8839 116.307 23.3073 116.674 23.6184C117.046 23.9245 117.506 24.0775 118.051 24.0775Z" fill="black"/>
<path d="M125.293 26.3729V14.6205H128.4V16.694H128.538C128.782 16.0054 129.19 15.4622 129.762 15.0643C130.333 14.6664 131.017 14.4675 131.812 14.4675C132.618 14.4675 133.304 14.669 133.87 15.0719C134.437 15.4698 134.814 16.0105 135.003 16.694H135.125C135.365 16.0207 135.799 15.4826 136.426 15.0796C137.059 14.6715 137.806 14.4675 138.668 14.4675C139.765 14.4675 140.655 14.8169 141.338 15.5157C142.027 16.2094 142.371 17.1939 142.371 18.4691V26.3729H139.119V19.1118C139.119 18.4589 138.946 17.9692 138.599 17.6428C138.252 17.3163 137.819 17.1531 137.298 17.1531C136.707 17.1531 136.245 17.3418 135.913 17.7193C135.582 18.0917 135.416 18.5839 135.416 19.196V26.3729H132.256V19.043C132.256 18.4666 132.09 18.0075 131.759 17.6657C131.432 17.324 131.001 17.1531 130.466 17.1531C130.103 17.1531 129.777 17.2449 129.486 17.4285C129.201 17.6071 128.974 17.8596 128.805 18.186C128.637 18.5074 128.553 18.8848 128.553 19.3184V26.3729H125.293Z" fill="black"/>
<path d="M144.299 30.78V14.6205H147.513V16.5946H147.658C147.801 16.2783 148.008 15.9569 148.278 15.6305C148.553 15.2989 148.91 15.0235 149.349 14.8042C149.793 14.5797 150.344 14.4675 151.002 14.4675C151.859 14.4675 152.649 14.6919 153.374 15.1408C154.098 15.5846 154.677 16.2553 155.111 17.1531C155.544 18.0457 155.761 19.1654 155.761 20.512C155.761 21.8229 155.549 22.9298 155.126 23.8327C154.708 24.7304 154.136 25.4114 153.412 25.8756C152.693 26.3346 151.887 26.5642 150.994 26.5642C150.362 26.5642 149.824 26.4596 149.38 26.2505C148.941 26.0413 148.581 25.7786 148.301 25.4624C148.02 25.141 147.806 24.8171 147.658 24.4907H147.559V30.78H144.299ZM147.49 20.4967C147.49 21.1955 147.587 21.8051 147.781 22.3254C147.974 22.8456 148.255 23.2512 148.622 23.5419C148.99 23.8276 149.436 23.9704 149.961 23.9704C150.492 23.9704 150.941 23.825 151.308 23.5343C151.675 23.2384 151.953 22.8303 152.142 22.3101C152.336 21.7847 152.433 21.1802 152.433 20.4967C152.433 19.8183 152.338 19.2215 152.15 18.7063C151.961 18.1911 151.683 17.7881 151.316 17.4974C150.948 17.2067 150.497 17.0613 149.961 17.0613C149.431 17.0613 148.982 17.2016 148.615 17.4821C148.252 17.7626 147.974 18.1605 147.781 18.6757C147.587 19.1909 147.49 19.7979 147.49 20.4967Z" fill="black"/>
<path d="M160.639 26.5948C159.889 26.5948 159.221 26.4647 158.634 26.2046C158.048 25.9393 157.583 25.5491 157.242 25.0339C156.905 24.5136 156.737 23.8658 156.737 23.0905C156.737 22.4376 156.856 21.8892 157.096 21.4455C157.336 21.0017 157.662 20.6446 158.076 20.3743C158.489 20.1039 158.958 19.8999 159.483 19.7622C160.014 19.6245 160.57 19.5275 161.151 19.4714C161.835 19.4 162.386 19.3337 162.804 19.2725C163.222 19.2062 163.526 19.1093 163.715 18.9817C163.903 18.8542 163.998 18.6655 163.998 18.4156V18.3696C163.998 17.8851 163.845 17.5102 163.539 17.2449C163.238 16.9797 162.809 16.847 162.253 16.847C161.667 16.847 161.2 16.9771 160.853 17.2373C160.506 17.4923 160.277 17.8137 160.164 18.2013L157.15 17.9565C157.303 17.2424 157.604 16.6252 158.053 16.1049C158.502 15.5795 159.08 15.1765 159.789 14.896C160.504 14.6103 161.33 14.4675 162.268 14.4675C162.921 14.4675 163.546 14.544 164.143 14.697C164.745 14.8501 165.278 15.0872 165.742 15.4086C166.211 15.73 166.581 16.1431 166.852 16.6481C167.122 17.148 167.257 17.7473 167.257 18.4462V26.3729H164.166V24.7432H164.074C163.885 25.1104 163.633 25.4343 163.317 25.7149C163 25.9903 162.62 26.2071 162.177 26.3652C161.733 26.5183 161.22 26.5948 160.639 26.5948ZM161.572 24.3453C162.052 24.3453 162.475 24.2509 162.842 24.0622C163.21 23.8684 163.498 23.6082 163.707 23.2818C163.916 22.9553 164.021 22.5855 164.021 22.1723V20.9252C163.919 20.9915 163.778 21.0527 163.6 21.1088C163.426 21.1598 163.23 21.2083 163.011 21.2542C162.791 21.295 162.572 21.3332 162.353 21.3689C162.133 21.3996 161.934 21.4276 161.756 21.4531C161.373 21.5092 161.039 21.5985 160.754 21.7209C160.468 21.8433 160.246 22.0091 160.088 22.2182C159.93 22.4223 159.851 22.6773 159.851 22.9834C159.851 23.4271 160.011 23.7663 160.333 24.001C160.659 24.2305 161.072 24.3453 161.572 24.3453Z" fill="black"/>
<path d="M172.399 19.5785V26.3729H169.139V14.6205H172.246V16.694H172.384C172.644 16.0105 173.08 15.4698 173.692 15.0719C174.304 14.669 175.046 14.4675 175.919 14.4675C176.735 14.4675 177.446 14.646 178.053 15.0031C178.66 15.3601 179.132 15.8702 179.469 16.5333C179.805 17.1913 179.974 17.9769 179.974 18.8899V26.3729H176.714V19.4714C176.719 18.7522 176.536 18.1911 176.163 17.7881C175.791 17.3801 175.278 17.176 174.625 17.176C174.187 17.176 173.799 17.2704 173.462 17.4591C173.131 17.6479 172.871 17.9233 172.682 18.2855C172.498 18.6425 172.404 19.0736 172.399 19.5785Z" fill="black"/>
<path d="M183.488 30.78C183.075 30.78 182.687 30.7469 182.325 30.6806C181.968 30.6193 181.672 30.5403 181.437 30.4434L182.172 28.0103C182.554 28.1276 182.899 28.1913 183.205 28.2015C183.516 28.2117 183.784 28.1403 184.008 27.9873C184.238 27.8343 184.424 27.5741 184.567 27.2069L184.758 26.7095L180.542 14.6205H183.97L186.403 23.2512H186.525L188.981 14.6205H192.432L187.864 27.643C187.645 28.2755 187.346 28.8264 186.969 29.2957C186.597 29.7701 186.125 30.1348 185.554 30.3898C184.982 30.6499 184.294 30.78 183.488 30.78Z" fill="black"/>
<defs>
<clipPath id="clip0_43_17766">
<rect width="52.326" height="27.5044" fill="white" transform="translate(0 4.71582)"/>
</clipPath>
</defs>
</svg>
