<svg width="311" height="42" viewBox="0 0 311 42" fill="none" xmlns="http://www.w3.org/2000/svg">
<g clip-path="url(#clip0_43_18191)">
<path d="M27.2837 24.7219C26.2764 23.7985 27.0319 12.6338 14.0203 10.5351C5.62579 9.19202 1.00879 15.32 1.00879 15.32C1.00879 15.32 7.89232 11.1228 15.1956 13.2214C25.9406 16.4113 25.5209 24.4701 27.2837 24.7219Z" fill="url(#paint0_linear_43_18191)"/>
<path d="M27.2823 24.7219C27.1983 24.9737 26.3589 26.2329 24.8479 25.3095C23.3368 24.47 19.3075 19.937 12.5918 18.7617C4.95278 17.4186 0 19.6012 0 19.6012C0 19.6012 5.12067 13.3053 15.362 16.4113C22.1616 18.426 23.4208 22.1196 25.2676 23.7985C26.107 24.7219 26.6947 24.8058 27.2823 24.7219Z" fill="url(#paint1_linear_43_18191)"/>
<path d="M27.2834 24.7219C26.9476 25.8971 25.8563 28.5834 22.6664 28.2476C18.2173 27.8279 16.7902 26.2329 13.0126 24.9737C6.63278 22.7911 0.25293 23.4627 0.25293 23.4627C0.25293 23.4627 5.03782 19.7691 14.4397 22.2875C18.0494 23.2948 21.3232 25.8971 22.7503 26.4847C24.0095 27.0723 25.8563 27.3242 27.2834 24.7219Z" fill="url(#paint2_linear_43_18191)"/>
<path d="M26.1065 27.4921C24.5955 29.7586 22.245 31.3536 18.2156 31.6054C11.2481 32.0251 5.6238 28.2476 0.922852 25.9811C0.922852 25.9811 5.79169 25.5613 11.2481 27.576C17.5441 29.8426 22.245 31.5215 26.1065 27.4921Z" fill="url(#paint3_linear_43_18191)"/>
<path d="M22.8332 31.4375C21.9937 32.1091 18.0483 35.4669 11.8363 34.6275C5.03676 33.6201 2.18262 28.4995 2.18262 28.4995C2.18262 28.4995 5.45649 31.9412 12.2561 32.7807C18.3001 33.6201 21.2382 32.4449 22.8332 31.4375Z" fill="url(#paint4_linear_43_18191)"/>
<path d="M27.2834 24.722C27.8711 19.5174 26.7798 14.4807 21.0715 10.871C15.2792 7.09346 8.73149 8.18475 4.61816 10.2834C6.29707 8.60447 13.6003 4.23931 21.5751 9.19209C28.7105 13.6412 28.2068 21.7839 27.2834 24.722Z" fill="url(#paint5_linear_43_18191)"/>
</g>
<path d="M35.3975 28.4365V12.7667H38.7105V19.232H45.4359V12.7667H48.7413V28.4365H45.4359V21.9635H38.7105V28.4365H35.3975Z" fill="black"/>
<path d="M56.1211 28.666C54.9122 28.666 53.8716 28.4212 52.9994 27.9315C52.1322 27.4367 51.464 26.7379 50.9947 25.835C50.5255 24.9271 50.2908 23.8534 50.2908 22.6139C50.2908 21.405 50.5255 20.344 50.9947 19.4309C51.464 18.5179 52.1246 17.8063 52.9764 17.2962C53.8334 16.7861 54.8382 16.5311 55.991 16.5311C56.7664 16.5311 57.4881 16.6561 58.1563 16.906C58.8297 17.1508 59.4163 17.5207 59.9161 18.0154C60.4211 18.5102 60.8139 19.1325 61.0944 19.8823C61.375 20.6271 61.5153 21.4993 61.5153 22.4991V23.3943H51.5915V21.3743H58.4471C58.4471 20.9051 58.3451 20.4894 58.141 20.1272C57.937 19.765 57.6539 19.4819 57.2917 19.2779C56.9347 19.0688 56.519 18.9642 56.0446 18.9642C55.5498 18.9642 55.1111 19.079 54.7286 19.3085C54.3511 19.5329 54.0553 19.8364 53.841 20.219C53.6268 20.5965 53.5171 21.0173 53.512 21.4815V23.4019C53.512 23.9834 53.6191 24.4859 53.8334 24.9092C54.0527 25.3326 54.3613 25.6591 54.7592 25.8886C55.157 26.1181 55.6289 26.2329 56.1747 26.2329C56.5368 26.2329 56.8684 26.1819 57.1693 26.0799C57.4703 25.9779 57.7279 25.8248 57.9421 25.6208C58.1563 25.4168 58.3196 25.1668 58.4318 24.871L61.4464 25.0699C61.2934 25.7942 60.9797 26.4267 60.5053 26.9674C60.036 27.503 59.429 27.9213 58.6843 28.2222C57.9447 28.5181 57.0903 28.666 56.1211 28.666Z" fill="black"/>
<path d="M62.9959 28.4365V16.6841H66.2554V28.4365H62.9959ZM64.6333 15.1692C64.1487 15.1692 63.733 15.0085 63.3861 14.6871C63.0444 14.3607 62.8735 13.9705 62.8735 13.5165C62.8735 13.0676 63.0444 12.6825 63.3861 12.3611C63.733 12.0347 64.1487 11.8715 64.6333 11.8715C65.1179 11.8715 65.531 12.0347 65.8728 12.3611C66.2197 12.6825 66.3931 13.0676 66.3931 13.5165C66.3931 13.9705 66.2197 14.3607 65.8728 14.6871C65.531 15.0085 65.1179 15.1692 64.6333 15.1692Z" fill="black"/>
<path d="M77.9983 20.0354L75.0143 20.219C74.9633 19.964 74.8536 19.7344 74.6853 19.5304C74.517 19.3213 74.2951 19.1555 74.0197 19.0331C73.7493 18.9055 73.4254 18.8418 73.0479 18.8418C72.543 18.8418 72.117 18.9489 71.7702 19.1631C71.4233 19.3723 71.2499 19.6528 71.2499 20.0048C71.2499 20.2853 71.3621 20.5225 71.5865 20.7163C71.811 20.9102 72.1961 21.0657 72.7419 21.1831L74.8689 21.6115C76.0115 21.8462 76.8634 22.2236 77.4245 22.7439C77.9856 23.2642 78.2661 23.9477 78.2661 24.7945C78.2661 25.5647 78.0391 26.2406 77.5852 26.8221C77.1363 27.4036 76.5191 27.8575 75.7335 28.184C74.9531 28.5053 74.0528 28.666 73.0326 28.666C71.4769 28.666 70.2374 28.3421 69.3141 27.6943C68.396 27.0414 67.8578 26.1538 67.6997 25.0317L70.9056 24.8633C71.0025 25.3377 71.2371 25.6999 71.6095 25.9498C71.9819 26.1947 72.4588 26.3171 73.0403 26.3171C73.6116 26.3171 74.0707 26.2074 74.4175 25.9881C74.7695 25.7636 74.948 25.4754 74.9531 25.1235C74.948 24.8276 74.823 24.5853 74.5782 24.3966C74.3334 24.2028 73.9559 24.0548 73.4458 23.9528L71.4106 23.5473C70.2629 23.3178 69.4085 22.9199 68.8474 22.3537C68.2914 21.7875 68.0134 21.0657 68.0134 20.1884C68.0134 19.4335 68.2174 18.7831 68.6255 18.2373C69.0387 17.6915 69.6176 17.2707 70.3623 16.9749C71.1122 16.679 71.9895 16.5311 72.9944 16.5311C74.4787 16.5311 75.6468 16.8448 76.4987 17.4722C77.3556 18.0996 77.8555 18.954 77.9983 20.0354Z" fill="black"/>
<path d="M79.6722 28.4365V16.6841H82.9316V28.4365H79.6722ZM81.3096 15.1692C80.825 15.1692 80.4093 15.0085 80.0624 14.6871C79.7207 14.3607 79.5498 13.9705 79.5498 13.5165C79.5498 13.0676 79.7207 12.6825 80.0624 12.3611C80.4093 12.0347 80.825 11.8715 81.3096 11.8715C81.7941 11.8715 82.2073 12.0347 82.5491 12.3611C82.8959 12.6825 83.0694 13.0676 83.0694 13.5165C83.0694 13.9705 82.8959 14.3607 82.5491 14.6871C82.2073 15.0085 81.7941 15.1692 81.3096 15.1692Z" fill="black"/>
<path d="M88.1557 21.6421V28.4365H84.8963V16.6841H88.0027V18.7576H88.1404C88.4005 18.0741 88.8367 17.5334 89.4488 17.1355C90.0609 16.7326 90.803 16.5311 91.6753 16.5311C92.4914 16.5311 93.203 16.7096 93.81 17.0667C94.417 17.4237 94.8888 17.9338 95.2255 18.5969C95.5621 19.2549 95.7305 20.0405 95.7305 20.9535V28.4365H92.471V21.535C92.4761 20.8158 92.2925 20.2547 91.9201 19.8517C91.5478 19.4437 91.0351 19.2396 90.3822 19.2396C89.9435 19.2396 89.5559 19.334 89.2192 19.5227C88.8877 19.7115 88.6275 19.9869 88.4388 20.3491C88.2552 20.7061 88.1608 21.1372 88.1557 21.6421Z" fill="black"/>
<path d="M102.948 33.0885C101.892 33.0885 100.986 32.9431 100.231 32.6523C99.4817 32.3667 98.8849 31.9765 98.4411 31.4817C97.9973 30.9869 97.7091 30.4309 97.5765 29.8137L100.591 29.4082C100.683 29.6428 100.828 29.8622 101.027 30.0662C101.226 30.2702 101.489 30.4335 101.815 30.5559C102.147 30.6834 102.55 30.7472 103.024 30.7472C103.733 30.7472 104.317 30.5737 104.776 30.2269C105.241 29.8851 105.473 29.3113 105.473 28.5053V26.3553H105.335C105.192 26.6818 104.978 26.9904 104.692 27.2811C104.407 27.5719 104.039 27.8091 103.59 27.9927C103.142 28.1763 102.606 28.2681 101.984 28.2681C101.101 28.2681 100.298 28.0641 99.5735 27.656C98.8543 27.2429 98.2804 26.6129 97.8519 25.7662C97.4286 24.9143 97.2169 23.8381 97.2169 22.5373C97.2169 21.206 97.4337 20.094 97.8672 19.2014C98.3008 18.3087 98.8772 17.6405 99.5964 17.1967C100.321 16.753 101.114 16.5311 101.976 16.5311C102.634 16.5311 103.185 16.6433 103.629 16.8677C104.072 17.0871 104.429 17.3625 104.7 17.6941C104.975 18.0205 105.187 18.3419 105.335 18.6581H105.457V16.6841H108.694V28.5512C108.694 29.551 108.449 30.3876 107.959 31.0609C107.47 31.7342 106.791 32.2392 105.924 32.5758C105.062 32.9176 104.07 33.0885 102.948 33.0885ZM103.017 25.8197C103.542 25.8197 103.986 25.6897 104.348 25.4295C104.715 25.1643 104.996 24.7868 105.19 24.2971C105.388 23.8024 105.488 23.2107 105.488 22.522C105.488 21.8334 105.391 21.2366 105.197 20.7316C105.003 20.2216 104.723 19.8262 104.356 19.5457C103.988 19.2651 103.542 19.1249 103.017 19.1249C102.481 19.1249 102.03 19.2702 101.662 19.561C101.295 19.8466 101.017 20.2445 100.828 20.7546C100.64 21.2647 100.545 21.8538 100.545 22.522C100.545 23.2005 100.64 23.787 100.828 24.2818C101.022 24.7715 101.3 25.1515 101.662 25.4219C102.03 25.6871 102.481 25.8197 103.017 25.8197Z" fill="black"/>
<path d="M120.113 20.7087V23.2948H109.34V20.7087H120.113Z" fill="black"/>
<path d="M129.33 17.2733C129.268 16.6561 129.006 16.1766 128.542 15.8348C128.077 15.4931 127.447 15.3222 126.652 15.3222C126.111 15.3222 125.654 15.3987 125.282 15.5517C124.91 15.6997 124.624 15.9062 124.425 16.1715C124.231 16.4367 124.134 16.7377 124.134 17.0743C124.124 17.3549 124.183 17.5997 124.31 17.8089C124.443 18.018 124.624 18.1991 124.854 18.3521C125.083 18.5 125.348 18.6301 125.649 18.7423C125.95 18.8494 126.272 18.9412 126.613 19.0178L128.021 19.3544C128.705 19.5074 129.332 19.7115 129.903 19.9665C130.475 20.2216 130.97 20.5353 131.388 20.9076C131.806 21.28 132.13 21.7187 132.36 22.2236C132.594 22.7286 132.714 23.3076 132.719 23.9605C132.714 24.9194 132.469 25.7509 131.985 26.4548C131.505 27.1536 130.811 27.6969 129.903 28.0845C129.001 28.4671 127.912 28.6584 126.636 28.6584C125.371 28.6584 124.27 28.4645 123.331 28.0769C122.398 27.6892 121.668 27.1154 121.143 26.3553C120.622 25.5902 120.35 24.644 120.324 23.5167H123.53C123.566 24.0421 123.716 24.4808 123.981 24.8327C124.252 25.1796 124.611 25.4423 125.06 25.6208C125.514 25.7942 126.027 25.8809 126.598 25.8809C127.159 25.8809 127.646 25.7993 128.059 25.6361C128.478 25.4729 128.802 25.2459 129.031 24.9551C129.261 24.6644 129.376 24.3303 129.376 23.9528C129.376 23.6009 129.271 23.305 129.062 23.0653C128.858 22.8255 128.557 22.6215 128.159 22.4532C127.766 22.2848 127.284 22.1318 126.713 21.9941L125.007 21.5656C123.686 21.2443 122.642 20.7418 121.877 20.0583C121.112 19.3748 120.732 18.4541 120.737 17.2962C120.732 16.3475 120.985 15.5186 121.495 14.8096C122.01 14.1005 122.716 13.5471 123.614 13.1492C124.512 12.7514 125.532 12.5524 126.675 12.5524C127.838 12.5524 128.853 12.7514 129.72 13.1492C130.592 13.5471 131.27 14.1005 131.755 14.8096C132.24 15.5186 132.49 16.3398 132.505 17.2733H129.33Z" fill="black"/>
<path d="M134.24 28.4365V16.6841H137.499V28.4365H134.24ZM135.877 15.1692C135.393 15.1692 134.977 15.0085 134.63 14.6871C134.288 14.3607 134.118 13.9705 134.118 13.5165C134.118 13.0676 134.288 12.6825 134.63 12.3611C134.977 12.0347 135.393 11.8715 135.877 11.8715C136.362 11.8715 136.775 12.0347 137.117 12.3611C137.464 12.6825 137.637 13.0676 137.637 13.5165C137.637 13.9705 137.464 14.3607 137.117 14.6871C136.775 15.0085 136.362 15.1692 135.877 15.1692Z" fill="black"/>
<path d="M139.464 28.4365V16.6841H142.57V18.7576H142.708C142.953 18.069 143.361 17.5258 143.932 17.1279C144.504 16.73 145.187 16.5311 145.983 16.5311C146.789 16.5311 147.475 16.7326 148.041 17.1355C148.607 17.5334 148.985 18.0741 149.173 18.7576H149.296C149.536 18.0843 149.969 17.5462 150.597 17.1432C151.229 16.7351 151.976 16.5311 152.838 16.5311C153.935 16.5311 154.825 16.8805 155.509 17.5793C156.197 18.273 156.542 19.2575 156.542 20.5327V28.4365H153.29V21.1754C153.29 20.5225 153.116 20.0328 152.77 19.7064C152.423 19.3799 151.989 19.2167 151.469 19.2167C150.877 19.2167 150.416 19.4054 150.084 19.7829C149.752 20.1552 149.587 20.6475 149.587 21.2596V28.4365H146.427V21.1066C146.427 20.5302 146.261 20.0711 145.929 19.7293C145.603 19.3876 145.172 19.2167 144.636 19.2167C144.274 19.2167 143.948 19.3085 143.657 19.4921C143.371 19.6707 143.144 19.9232 142.976 20.2496C142.808 20.571 142.723 20.9484 142.723 21.382V28.4365H139.464Z" fill="black"/>
<path d="M163.78 28.666C162.591 28.666 161.564 28.4135 160.696 27.9085C159.834 27.3985 159.169 26.6894 158.699 25.7815C158.23 24.8684 157.996 23.81 157.996 22.6062C157.996 21.3922 158.23 20.3312 158.699 19.4233C159.169 18.5102 159.834 17.8012 160.696 17.2962C161.564 16.7861 162.591 16.5311 163.78 16.5311C164.968 16.5311 165.994 16.7861 166.856 17.2962C167.723 17.8012 168.391 18.5102 168.86 19.4233C169.33 20.3312 169.564 21.3922 169.564 22.6062C169.564 23.81 169.33 24.8684 168.86 25.7815C168.391 26.6894 167.723 27.3985 166.856 27.9085C165.994 28.4135 164.968 28.666 163.78 28.666ZM163.795 26.1411C164.336 26.1411 164.787 25.9881 165.15 25.682C165.512 25.3709 165.785 24.9475 165.968 24.4119C166.157 23.8763 166.251 23.2668 166.251 22.5832C166.251 21.8997 166.157 21.2902 165.968 20.7546C165.785 20.219 165.512 19.7956 165.15 19.4845C164.787 19.1733 164.336 19.0178 163.795 19.0178C163.249 19.0178 162.79 19.1733 162.418 19.4845C162.051 19.7956 161.773 20.219 161.584 20.7546C161.4 21.2902 161.309 21.8997 161.309 22.5832C161.309 23.2668 161.4 23.8763 161.584 24.4119C161.773 24.9475 162.051 25.3709 162.418 25.682C162.79 25.9881 163.249 26.1411 163.795 26.1411Z" fill="black"/>
<path d="M174.297 21.6421V28.4365H171.037V16.6841H174.144V18.7576H174.281C174.542 18.0741 174.978 17.5334 175.59 17.1355C176.202 16.7326 176.944 16.5311 177.816 16.5311C178.632 16.5311 179.344 16.7096 179.951 17.0667C180.558 17.4237 181.03 17.9338 181.367 18.5969C181.703 19.2549 181.872 20.0405 181.872 20.9535V28.4365H178.612V21.535C178.617 20.8158 178.434 20.2547 178.061 19.8517C177.689 19.4437 177.176 19.2396 176.523 19.2396C176.085 19.2396 175.697 19.334 175.36 19.5227C175.029 19.7115 174.769 19.9869 174.58 20.3491C174.396 20.7061 174.302 21.1372 174.297 21.6421Z" fill="black"/>
<path d="M193.572 20.0354L190.588 20.219C190.537 19.964 190.428 19.7344 190.259 19.5304C190.091 19.3213 189.869 19.1555 189.594 19.0331C189.323 18.9055 188.999 18.8418 188.622 18.8418C188.117 18.8418 187.691 18.9489 187.344 19.1631C186.997 19.3723 186.824 19.6528 186.824 20.0048C186.824 20.2853 186.936 20.5225 187.161 20.7163C187.385 20.9102 187.77 21.0657 188.316 21.1831L190.443 21.6115C191.586 21.8462 192.437 22.2236 192.999 22.7439C193.56 23.2642 193.84 23.9477 193.84 24.7945C193.84 25.5647 193.613 26.2406 193.159 26.8221C192.71 27.4036 192.093 27.8575 191.308 28.184C190.527 28.5053 189.627 28.666 188.607 28.666C187.051 28.666 185.811 28.3421 184.888 27.6943C183.97 27.0414 183.432 26.1538 183.274 25.0317L186.48 24.8633C186.577 25.3377 186.811 25.6999 187.184 25.9498C187.556 26.1947 188.033 26.3171 188.614 26.3171C189.186 26.3171 189.645 26.2074 189.992 25.9881C190.344 25.7636 190.522 25.4754 190.527 25.1235C190.522 24.8276 190.397 24.5853 190.152 24.3966C189.907 24.2028 189.53 24.0548 189.02 23.9528L186.985 23.5473C185.837 23.3178 184.983 22.9199 184.421 22.3537C183.865 21.7875 183.587 21.0657 183.587 20.1884C183.587 19.4335 183.792 18.7831 184.2 18.2373C184.613 17.6915 185.192 17.2707 185.936 16.9749C186.686 16.679 187.564 16.5311 188.568 16.5311C190.053 16.5311 191.221 16.8448 192.073 17.4722C192.93 18.0996 193.43 18.954 193.572 20.0354Z" fill="black"/>
<path d="M199.648 28.4365V12.7667H210.023V15.4982H202.961V19.232H209.334V21.9635H202.961V28.4365H199.648Z" fill="black"/>
<path d="M215.991 28.666C214.803 28.666 213.775 28.4135 212.908 27.9085C212.046 27.3985 211.38 26.6894 210.911 25.7815C210.441 24.8684 210.207 23.81 210.207 22.6062C210.207 21.3922 210.441 20.3312 210.911 19.4233C211.38 18.5102 212.046 17.8012 212.908 17.2962C213.775 16.7861 214.803 16.5311 215.991 16.5311C217.18 16.5311 218.205 16.7861 219.067 17.2962C219.934 17.8012 220.602 18.5102 221.072 19.4233C221.541 20.3312 221.775 21.3922 221.775 22.6062C221.775 23.81 221.541 24.8684 221.072 25.7815C220.602 26.6894 219.934 27.3985 219.067 27.9085C218.205 28.4135 217.18 28.666 215.991 28.666ZM216.006 26.1411C216.547 26.1411 216.999 25.9881 217.361 25.682C217.723 25.3709 217.996 24.9475 218.179 24.4119C218.368 23.8763 218.462 23.2668 218.462 22.5832C218.462 21.8997 218.368 21.2902 218.179 20.7546C217.996 20.219 217.723 19.7956 217.361 19.4845C216.999 19.1733 216.547 19.0178 216.006 19.0178C215.461 19.0178 215.002 19.1733 214.629 19.4845C214.262 19.7956 213.984 20.219 213.795 20.7546C213.612 21.2902 213.52 21.8997 213.52 22.5832C213.52 23.2668 213.612 23.8763 213.795 24.4119C213.984 24.9475 214.262 25.3709 214.629 25.682C215.002 25.9881 215.461 26.1411 216.006 26.1411Z" fill="black"/>
<path d="M230.785 23.4325V16.6841H234.044V28.4365H230.915V26.3018H230.793C230.527 26.9904 230.086 27.5438 229.469 27.9621C228.857 28.3804 228.11 28.5895 227.227 28.5895C226.442 28.5895 225.75 28.411 225.154 28.0539C224.557 27.6969 224.09 27.1893 223.753 26.5313C223.422 25.8733 223.254 25.0852 223.249 24.1671V16.6841H226.508V23.5856C226.513 24.2793 226.699 24.8276 227.066 25.2306C227.434 25.6336 227.926 25.835 228.543 25.835C228.936 25.835 229.303 25.7458 229.645 25.5672C229.987 25.3836 230.262 25.1133 230.471 24.7562C230.686 24.3992 230.79 23.9579 230.785 23.4325Z" fill="black"/>
<path d="M239.265 21.6421V28.4365H236.005V16.6841H239.112V18.7576H239.249C239.51 18.0741 239.946 17.5334 240.558 17.1355C241.17 16.7326 241.912 16.5311 242.784 16.5311C243.6 16.5311 244.312 16.7096 244.919 17.0667C245.526 17.4237 245.998 17.9338 246.334 18.5969C246.671 19.2549 246.839 20.0405 246.839 20.9535V28.4365H243.58V21.535C243.585 20.8158 243.401 20.2547 243.029 19.8517C242.657 19.4437 242.144 19.2396 241.491 19.2396C241.053 19.2396 240.665 19.334 240.328 19.5227C239.997 19.7115 239.737 19.9869 239.548 20.3491C239.364 20.7061 239.27 21.1372 239.265 21.6421Z" fill="black"/>
<path d="M253.093 28.6278C252.2 28.6278 251.391 28.3982 250.667 27.9391C249.948 27.475 249.377 26.794 248.953 25.8963C248.535 24.9934 248.326 23.8865 248.326 22.5756C248.326 21.229 248.543 20.1093 248.976 19.2167C249.41 18.3189 249.986 17.6482 250.705 17.2044C251.43 16.7555 252.223 16.5311 253.085 16.5311C253.743 16.5311 254.291 16.6433 254.73 16.8677C255.174 17.0871 255.531 17.3625 255.801 17.6941C256.077 18.0205 256.286 18.3419 256.429 18.6581H256.528V12.7667H259.78V28.4365H256.566V26.5543H256.429C256.276 26.8807 256.059 27.2046 255.778 27.526C255.503 27.8422 255.143 28.1049 254.699 28.3141C254.261 28.5232 253.725 28.6278 253.093 28.6278ZM254.126 26.034C254.651 26.034 255.095 25.8912 255.457 25.6055C255.824 25.3148 256.105 24.9092 256.298 24.389C256.497 23.8687 256.597 23.2591 256.597 22.5603C256.597 21.8615 256.5 21.2545 256.306 20.7393C256.112 20.2241 255.832 19.8262 255.465 19.5457C255.097 19.2651 254.651 19.1249 254.126 19.1249C253.59 19.1249 253.139 19.2702 252.771 19.561C252.404 19.8517 252.126 20.2547 251.937 20.7699C251.749 21.2851 251.654 21.8819 251.654 22.5603C251.654 23.2438 251.749 23.8483 251.937 24.3736C252.131 24.8939 252.409 25.302 252.771 25.5979C253.139 25.8886 253.59 26.034 254.126 26.034Z" fill="black"/>
<path d="M265.165 28.6584C264.415 28.6584 263.747 28.5283 263.16 28.2681C262.573 28.0029 262.109 27.6127 261.767 27.0975C261.431 26.5772 261.262 25.9294 261.262 25.1541C261.262 24.5012 261.382 23.9528 261.622 23.5091C261.862 23.0653 262.188 22.7082 262.601 22.4379C263.015 22.1675 263.484 21.9635 264.009 21.8258C264.54 21.6881 265.096 21.5911 265.677 21.535C266.361 21.4636 266.912 21.3973 267.33 21.3361C267.748 21.2698 268.052 21.1729 268.24 21.0453C268.429 20.9178 268.523 20.7291 268.523 20.4791V20.4332C268.523 19.9487 268.37 19.5737 268.064 19.3085C267.763 19.0433 267.335 18.9106 266.779 18.9106C266.192 18.9106 265.726 19.0407 265.379 19.3009C265.032 19.5559 264.802 19.8772 264.69 20.2649L261.676 20.0201C261.829 19.306 262.13 18.6887 262.578 18.1685C263.027 17.6431 263.606 17.2401 264.315 16.9596C265.029 16.6739 265.856 16.5311 266.794 16.5311C267.447 16.5311 268.072 16.6076 268.669 16.7606C269.271 16.9137 269.804 17.1508 270.268 17.4722C270.737 17.7935 271.107 18.2067 271.377 18.7117C271.648 19.2116 271.783 19.8109 271.783 20.5098V28.4365H268.692V26.8068H268.6C268.411 27.174 268.159 27.4979 267.843 27.7785C267.526 28.0539 267.146 28.2707 266.702 28.4288C266.259 28.5819 265.746 28.6584 265.165 28.6584ZM266.098 26.4089C266.578 26.4089 267.001 26.3145 267.368 26.1258C267.735 25.932 268.024 25.6718 268.233 25.3454C268.442 25.0189 268.546 24.6491 268.546 24.2359V22.9888C268.444 23.0551 268.304 23.1163 268.126 23.1724C267.952 23.2234 267.756 23.2719 267.536 23.3178C267.317 23.3586 267.098 23.3968 266.878 23.4325C266.659 23.4631 266.46 23.4912 266.282 23.5167C265.899 23.5728 265.565 23.6621 265.279 23.7845C264.994 23.9069 264.772 24.0727 264.614 24.2818C264.456 24.4859 264.376 24.7409 264.376 25.047C264.376 25.4907 264.537 25.8299 264.859 26.0646C265.185 26.2941 265.598 26.4089 266.098 26.4089Z" fill="black"/>
<path d="M279.916 16.6841V19.1325H272.839V16.6841H279.916ZM274.446 13.8684H277.705V24.8251C277.705 25.126 277.751 25.3607 277.843 25.529C277.935 25.6922 278.062 25.807 278.225 25.8733C278.394 25.9396 278.588 25.9728 278.807 25.9728C278.96 25.9728 279.113 25.96 279.266 25.9345C279.419 25.9039 279.536 25.8809 279.618 25.8656L280.131 28.2911C279.967 28.3421 279.738 28.4008 279.442 28.4671C279.146 28.5385 278.787 28.5819 278.363 28.5972C277.578 28.6278 276.889 28.5232 276.297 28.2835C275.711 28.0437 275.254 27.6713 274.928 27.1664C274.601 26.6614 274.441 26.0238 274.446 25.2535V13.8684Z" fill="black"/>
<path d="M281.393 28.4365V16.6841H284.653V28.4365H281.393ZM283.031 15.1692C282.546 15.1692 282.13 15.0085 281.783 14.6871C281.442 14.3607 281.271 13.9705 281.271 13.5165C281.271 13.0676 281.442 12.6825 281.783 12.3611C282.13 12.0347 282.546 11.8715 283.031 11.8715C283.515 11.8715 283.928 12.0347 284.27 12.3611C284.617 12.6825 284.79 13.0676 284.79 13.5165C284.79 13.9705 284.617 14.3607 284.27 14.6871C283.928 15.0085 283.515 15.1692 283.031 15.1692Z" fill="black"/>
<path d="M291.927 28.666C290.739 28.666 289.711 28.4135 288.844 27.9085C287.982 27.3985 287.316 26.6894 286.847 25.7815C286.378 24.8684 286.143 23.81 286.143 22.6062C286.143 21.3922 286.378 20.3312 286.847 19.4233C287.316 18.5102 287.982 17.8012 288.844 17.2962C289.711 16.7861 290.739 16.5311 291.927 16.5311C293.116 16.5311 294.141 16.7861 295.003 17.2962C295.87 17.8012 296.538 18.5102 297.008 19.4233C297.477 20.3312 297.712 21.3922 297.712 22.6062C297.712 23.81 297.477 24.8684 297.008 25.7815C296.538 26.6894 295.87 27.3985 295.003 27.9085C294.141 28.4135 293.116 28.666 291.927 28.666ZM291.943 26.1411C292.483 26.1411 292.935 25.9881 293.297 25.682C293.659 25.3709 293.932 24.9475 294.116 24.4119C294.304 23.8763 294.399 23.2668 294.399 22.5832C294.399 21.8997 294.304 21.2902 294.116 20.7546C293.932 20.219 293.659 19.7956 293.297 19.4845C292.935 19.1733 292.483 19.0178 291.943 19.0178C291.397 19.0178 290.938 19.1733 290.565 19.4845C290.198 19.7956 289.92 20.219 289.731 20.7546C289.548 21.2902 289.456 21.8997 289.456 22.5832C289.456 23.2668 289.548 23.8763 289.731 24.4119C289.92 24.9475 290.198 25.3709 290.565 25.682C290.938 25.9881 291.397 26.1411 291.943 26.1411Z" fill="black"/>
<path d="M302.444 21.6421V28.4365H299.185V16.6841H302.291V18.7576H302.429C302.689 18.0741 303.125 17.5334 303.737 17.1355C304.349 16.7326 305.091 16.5311 305.964 16.5311C306.78 16.5311 307.491 16.7096 308.098 17.0667C308.705 17.4237 309.177 17.9338 309.514 18.5969C309.851 19.2549 310.019 20.0405 310.019 20.9535V28.4365H306.759V21.535C306.765 20.8158 306.581 20.2547 306.209 19.8517C305.836 19.4437 305.324 19.2396 304.671 19.2396C304.232 19.2396 303.844 19.334 303.508 19.5227C303.176 19.7115 302.916 19.9869 302.727 20.3491C302.544 20.7061 302.449 21.1372 302.444 21.6421Z" fill="black"/>
<defs>
<linearGradient id="paint0_linear_43_18191" x1="11.9573" y1="9.95796" x2="15.7565" y2="27.2995" gradientUnits="userSpaceOnUse">
<stop stop-color="#95D600"/>
<stop offset="0.329" stop-color="#66C351"/>
<stop offset="1" stop-color="#009AFF"/>
</linearGradient>
<linearGradient id="paint1_linear_43_18191" x1="12.0445" y1="14.854" x2="14.9537" y2="28.1332" gradientUnits="userSpaceOnUse">
<stop stop-color="#95D600"/>
<stop offset="0.329" stop-color="#66C351"/>
<stop offset="1" stop-color="#009AFF"/>
</linearGradient>
<linearGradient id="paint2_linear_43_18191" x1="12.8265" y1="20.011" x2="15.0685" y2="30.2447" gradientUnits="userSpaceOnUse">
<stop stop-color="#95D600"/>
<stop offset="0.329" stop-color="#66C351"/>
<stop offset="1" stop-color="#009AFF"/>
</linearGradient>
<linearGradient id="paint3_linear_43_18191" x1="12.83" y1="23.4706" x2="14.8294" y2="32.5973" gradientUnits="userSpaceOnUse">
<stop stop-color="#95D600"/>
<stop offset="0.329" stop-color="#66C351"/>
<stop offset="1" stop-color="#009AFF"/>
</linearGradient>
<linearGradient id="paint4_linear_43_18191" x1="11.8066" y1="26.4853" x2="13.7154" y2="35.1978" gradientUnits="userSpaceOnUse">
<stop stop-color="#95D600"/>
<stop offset="0.329" stop-color="#66C351"/>
<stop offset="1" stop-color="#009AFF"/>
</linearGradient>
<linearGradient id="paint5_linear_43_18191" x1="14.4605" y1="6.49118" x2="18.8697" y2="26.6174" gradientUnits="userSpaceOnUse">
<stop stop-color="#95D600"/>
<stop offset="0.329" stop-color="#66C351"/>
<stop offset="1" stop-color="#009AFF"/>
</linearGradient>
<clipPath id="clip0_43_18191">
<rect width="27.702" height="27.702" fill="white" transform="translate(0 6.92548)"/>
</clipPath>
</defs>
</svg>
