<svg width="94" height="37" viewBox="0 0 94 37" fill="none" xmlns="http://www.w3.org/2000/svg">
<g clip-path="url(#clip0_43_17703)">
<path d="M12.8852 29.6999C19.0884 29.6999 24.1171 24.6712 24.1171 18.468C24.1171 12.2648 19.0884 7.23611 12.8852 7.23611C6.68201 7.23611 1.65332 12.2648 1.65332 18.468C1.65332 24.6712 6.68201 29.6999 12.8852 29.6999Z" fill="#0B3D91"/>
<path d="M12.2226 9.51941C12.2921 9.51941 12.3485 9.46304 12.3485 9.3935C12.3485 9.32395 12.2921 9.26758 12.2226 9.26758C12.1531 9.26758 12.0967 9.32395 12.0967 9.3935C12.0967 9.46304 12.1531 9.51941 12.2226 9.51941Z" fill="white"/>
<path d="M13.5146 9.68732C13.5841 9.68732 13.6405 9.63095 13.6405 9.5614C13.6405 9.49186 13.5841 9.43549 13.5146 9.43549C13.445 9.43549 13.3887 9.49186 13.3887 9.5614C13.3887 9.63095 13.445 9.68732 13.5146 9.68732Z" fill="white"/>
<path d="M15.2119 11.9706C15.2814 11.9706 15.3378 11.9142 15.3378 11.8447C15.3378 11.7752 15.2814 11.7188 15.2119 11.7188C15.1423 11.7188 15.0859 11.7752 15.0859 11.8447C15.0859 11.9142 15.1423 11.9706 15.2119 11.9706Z" fill="white"/>
<path d="M5.9101 23.723C5.97964 23.723 6.03602 23.6666 6.03602 23.5971C6.03602 23.5275 5.97964 23.4712 5.9101 23.4712C5.84055 23.4712 5.78418 23.5275 5.78418 23.5971C5.78418 23.6666 5.84055 23.723 5.9101 23.723Z" fill="white"/>
<path d="M6.23725 24.7303C6.30679 24.7303 6.36316 24.6739 6.36316 24.6044C6.36316 24.5349 6.30679 24.4785 6.23725 24.4785C6.1677 24.4785 6.11133 24.5349 6.11133 24.6044C6.11133 24.6739 6.1677 24.7303 6.23725 24.7303Z" fill="white"/>
<path d="M4.67633 23.8425C4.72841 23.8425 4.77063 23.8003 4.77063 23.7482C4.77063 23.6961 4.72841 23.6539 4.67633 23.6539C4.62425 23.6539 4.58203 23.6961 4.58203 23.7482C4.58203 23.8003 4.62425 23.8425 4.67633 23.8425Z" fill="white"/>
<path d="M9.79575 25.8216C9.84798 25.8216 9.89033 25.7793 9.89033 25.7271C9.89033 25.6748 9.84798 25.6325 9.79575 25.6325C9.74352 25.6325 9.70117 25.6748 9.70117 25.7271C9.70117 25.7793 9.74352 25.8216 9.79575 25.8216Z" fill="white"/>
<path d="M17.8277 24.1531C17.8798 24.1531 17.922 24.1109 17.922 24.0588C17.922 24.0067 17.8798 23.9645 17.8277 23.9645C17.7756 23.9645 17.7334 24.0067 17.7334 24.0588C17.7334 24.1109 17.7756 24.1531 17.8277 24.1531Z" fill="white"/>
<path d="M20.162 21.6182C20.2142 21.6182 20.2565 21.5759 20.2565 21.5236C20.2565 21.4714 20.2142 21.429 20.162 21.429C20.1097 21.429 20.0674 21.4714 20.0674 21.5236C20.0674 21.5759 20.1097 21.6182 20.162 21.6182Z" fill="white"/>
<path d="M8.72223 12.6755C8.77431 12.6755 8.81653 12.6333 8.81653 12.5812C8.81653 12.5291 8.77431 12.4869 8.72223 12.4869C8.67015 12.4869 8.62793 12.5291 8.62793 12.5812C8.62793 12.6333 8.67015 12.6755 8.72223 12.6755Z" fill="white"/>
<path d="M11.2906 10.789C11.3427 10.789 11.3849 10.7468 11.3849 10.6947C11.3849 10.6426 11.3427 10.6004 11.2906 10.6004C11.2385 10.6004 11.1963 10.6426 11.1963 10.6947C11.1963 10.7468 11.2385 10.789 11.2906 10.789Z" fill="white"/>
<path d="M11.0113 10.6042C11.0634 10.6042 11.1056 10.562 11.1056 10.5099C11.1056 10.4579 11.0634 10.4156 11.0113 10.4156C10.9592 10.4156 10.917 10.4579 10.917 10.5099C10.917 10.562 10.9592 10.6042 11.0113 10.6042Z" fill="white"/>
<path d="M10.7603 10.4196C10.8124 10.4196 10.8546 10.3774 10.8546 10.3253C10.8546 10.2732 10.8124 10.231 10.7603 10.231C10.7082 10.231 10.666 10.2732 10.666 10.3253C10.666 10.3774 10.7082 10.4196 10.7603 10.4196Z" fill="white"/>
<path d="M9.12457 13.1627C9.17665 13.1627 9.21887 13.1204 9.21887 13.0684C9.21887 13.0163 9.17665 12.9741 9.12457 12.9741C9.07249 12.9741 9.03027 13.0163 9.03027 13.0684C9.03027 13.1204 9.07249 13.1627 9.12457 13.1627Z" fill="white"/>
<path d="M12.9088 8.25381C12.9608 8.25381 13.0031 8.21159 13.0031 8.15951C13.0031 8.10744 12.9608 8.06522 12.9088 8.06522C12.8567 8.06522 12.8145 8.10744 12.8145 8.15951C12.8145 8.21159 12.8567 8.25381 12.9088 8.25381Z" fill="white"/>
<path d="M13.5298 10.9737C13.5819 10.9737 13.6241 10.9314 13.6241 10.8794C13.6241 10.8273 13.5819 10.7851 13.5298 10.7851C13.4778 10.7851 13.4355 10.8273 13.4355 10.8794C13.4355 10.9314 13.4778 10.9737 13.5298 10.9737Z" fill="white"/>
<path d="M12.5504 10.4425C12.6024 10.4425 12.6447 10.4003 12.6447 10.3482C12.6447 10.2961 12.6024 10.2539 12.5504 10.2539C12.4983 10.2539 12.4561 10.2961 12.4561 10.3482C12.4561 10.4003 12.4983 10.4425 12.5504 10.4425Z" fill="white"/>
<path d="M10.8716 11.1647C10.9237 11.1647 10.9659 11.1225 10.9659 11.0704C10.9659 11.0184 10.9237 10.9761 10.8716 10.9761C10.8196 10.9761 10.7773 11.0184 10.7773 11.0704C10.7773 11.1225 10.8196 11.1647 10.8716 11.1647Z" fill="white"/>
<path d="M18.275 26.6443C18.327 26.6443 18.3693 26.6021 18.3693 26.55C18.3693 26.4979 18.327 26.4557 18.275 26.4557C18.2229 26.4557 18.1807 26.4979 18.1807 26.55C18.1807 26.6021 18.2229 26.6443 18.275 26.6443Z" fill="white"/>
<path d="M5.75083 24.3296C5.80306 24.3296 5.84541 24.2873 5.84541 24.2351C5.84541 24.1828 5.80306 24.1405 5.75083 24.1405C5.69859 24.1405 5.65625 24.1828 5.65625 24.2351C5.65625 24.2873 5.69859 24.3296 5.75083 24.3296Z" fill="white"/>
<path d="M12.3153 25.5469C12.3675 25.5469 12.4099 25.5045 12.4099 25.4523C12.4099 25.4 12.3675 25.3577 12.3153 25.3577C12.263 25.3577 12.2207 25.4 12.2207 25.4523C12.2207 25.5045 12.263 25.5469 12.3153 25.5469Z" fill="white"/>
<path d="M7.70395 24.2541C7.75619 24.2541 7.79853 24.2118 7.79853 24.1595C7.79853 24.1073 7.75619 24.0649 7.70395 24.0649C7.65172 24.0649 7.60938 24.1073 7.60938 24.1595C7.60938 24.2118 7.65172 24.2541 7.70395 24.2541Z" fill="white"/>
<path d="M8.52036 25.5869C8.57259 25.5869 8.61494 25.5445 8.61494 25.4923C8.61494 25.44 8.57259 25.3977 8.52036 25.3977C8.46813 25.3977 8.42578 25.44 8.42578 25.4923C8.42578 25.5445 8.46813 25.5869 8.52036 25.5869Z" fill="white"/>
<path d="M14.5318 24.7471C14.5839 24.7471 14.6261 24.7049 14.6261 24.6528C14.6261 24.6008 14.5839 24.5585 14.5318 24.5585C14.4797 24.5585 14.4375 24.6008 14.4375 24.6528C14.4375 24.7049 14.4797 24.7471 14.5318 24.7471Z" fill="white"/>
<path d="M17.8453 22.8771C17.8974 22.8771 17.9396 22.8349 17.9396 22.7828C17.9396 22.7307 17.8974 22.6885 17.8453 22.6885C17.7932 22.6885 17.751 22.7307 17.751 22.7828C17.751 22.8349 17.7932 22.8771 17.8453 22.8771Z" fill="white"/>
<path d="M20.358 24.0249C20.41 24.0249 20.4523 23.9827 20.4523 23.9306C20.4523 23.8785 20.41 23.8363 20.358 23.8363C20.3059 23.8363 20.2637 23.8785 20.2637 23.9306C20.2637 23.9827 20.3059 24.0249 20.358 24.0249Z" fill="white"/>
<path d="M21.2125 24.5728C21.2645 24.5728 21.3068 24.5306 21.3068 24.4785C21.3068 24.4264 21.2645 24.3842 21.2125 24.3842C21.1604 24.3842 21.1182 24.4264 21.1182 24.4785C21.1182 24.5306 21.1604 24.5728 21.2125 24.5728Z" fill="white"/>
<path d="M21.3541 23.0786C21.4061 23.0786 21.4484 23.0364 21.4484 22.9843C21.4484 22.9322 21.4061 22.89 21.3541 22.89C21.302 22.89 21.2598 22.9322 21.2598 22.9843C21.2598 23.0364 21.302 23.0786 21.3541 23.0786Z" fill="white"/>
<path d="M8.86285 20.9631C8.91493 20.9631 8.95715 20.9209 8.95715 20.8688C8.95715 20.8168 8.91493 20.7745 8.86285 20.7745C8.81077 20.7745 8.76855 20.8168 8.76855 20.8688C8.76855 20.9209 8.81077 20.9631 8.86285 20.9631Z" fill="white"/>
<path d="M8.89838 23.1606C8.96792 23.1606 9.0243 23.1042 9.0243 23.0347C9.0243 22.9651 8.96792 22.9088 8.89838 22.9088C8.82884 22.9088 8.77246 22.9651 8.77246 23.0347C8.77246 23.1042 8.82884 23.1606 8.89838 23.1606Z" fill="white"/>
<path d="M9.65326 24.7555C9.7228 24.7555 9.77918 24.6992 9.77918 24.6296C9.77918 24.5601 9.7228 24.5037 9.65326 24.5037C9.58372 24.5037 9.52734 24.5601 9.52734 24.6296C9.52734 24.6992 9.58372 24.7555 9.65326 24.7555Z" fill="white"/>
<path d="M18.704 23.0934C18.7736 23.0934 18.83 23.037 18.83 22.9675C18.83 22.8979 18.7736 22.8416 18.704 22.8416C18.6345 22.8416 18.5781 22.8979 18.5781 22.9675C18.5781 23.037 18.6345 23.0934 18.704 23.0934Z" fill="white"/>
<path d="M21.9609 22.9087C22.0304 22.9087 22.0868 22.8524 22.0868 22.7828C22.0868 22.7133 22.0304 22.6569 21.9609 22.6569C21.8913 22.6569 21.835 22.7133 21.835 22.7828C21.835 22.8524 21.8913 22.9087 21.9609 22.9087Z" fill="white"/>
<path d="M20.3486 22.2203C20.4181 22.2203 20.4745 22.164 20.4745 22.0944C20.4745 22.0249 20.4181 21.9685 20.3486 21.9685C20.279 21.9685 20.2227 22.0249 20.2227 22.0944C20.2227 22.164 20.279 22.2203 20.3486 22.2203Z" fill="white"/>
<path d="M18.704 22.2875C18.7736 22.2875 18.83 22.2311 18.83 22.1616C18.83 22.0921 18.7736 22.0357 18.704 22.0357C18.6345 22.0357 18.5781 22.0921 18.5781 22.1616C18.5781 22.2311 18.6345 22.2875 18.704 22.2875Z" fill="white"/>
<path d="M15.3093 9.31457L15.6224 9.28463L15.3099 9.267C15.3001 9.20656 15.2517 9.15927 15.1907 9.15144L15.1607 8.83972L15.1428 9.15396C15.0863 9.16655 15.0429 9.21384 15.0359 9.2726L14.7158 9.3017L15.0382 9.31905C15.0499 9.37306 15.0936 9.41531 15.1484 9.42538L15.1775 9.74661L15.1946 9.42594C15.2525 9.41615 15.2984 9.37166 15.3093 9.31457Z" fill="white"/>
<path d="M10.0242 12.8006L10.3373 12.7706L10.0247 12.753C10.0152 12.6926 9.96652 12.6453 9.90552 12.6374L9.87558 12.3257L9.85795 12.64C9.80114 12.6525 9.75777 12.6998 9.75078 12.7586L9.43066 12.7877L9.75301 12.805C9.76477 12.859 9.80842 12.9013 9.86326 12.9114L9.89236 13.2326L9.90971 12.9119C9.96764 12.9024 10.0135 12.8576 10.0242 12.8006Z" fill="white"/>
<path d="M21.7299 22.0172L22.043 21.9873L21.7305 21.9696C21.721 21.9092 21.6723 21.8619 21.6113 21.8541L21.5813 21.5424L21.5637 21.8566C21.5072 21.8692 21.4638 21.9165 21.4568 21.9752L21.1367 22.0043L21.4591 22.0217C21.4708 22.0757 21.5145 22.1179 21.5693 22.128L21.5984 22.4492L21.6158 22.1286C21.6731 22.1191 21.719 22.0746 21.7299 22.0172Z" fill="white"/>
<path d="M8.96752 26.8363L9.28063 26.8063L8.96808 26.7887C8.95828 26.7283 8.90987 26.681 8.84887 26.6731L8.81893 26.3617L8.80131 26.6757C8.7445 26.6882 8.70113 26.7355 8.69414 26.7943L8.37402 26.8234L8.69637 26.8407C8.70813 26.8947 8.75178 26.9373 8.80662 26.9471L8.83572 27.2683L8.85307 26.9476C8.91071 26.9381 8.95688 26.8933 8.96752 26.8363Z" fill="white"/>
<path d="M20.7358 24.4858L21.0489 24.4558L20.7364 24.4382C20.7268 24.3778 20.6781 24.3305 20.6171 24.3226L20.5872 24.0109L20.5696 24.3249C20.5131 24.3375 20.4697 24.3848 20.4627 24.4435L20.1426 24.4726L20.4649 24.49C20.4767 24.544 20.5203 24.5862 20.5752 24.5963L20.6043 24.9175L20.6216 24.5969C20.679 24.5876 20.7252 24.5429 20.7358 24.4858Z" fill="white"/>
<path d="M15.5496 15.7775C14.2436 16.2851 12.9699 16.7382 11.8951 17.0745C9.71115 17.7584 3.73563 19.6096 0.125977 21.9433L0.42818 22.0609C2.62755 20.8185 4.05714 20.4281 5.43133 19.9958C6.92556 19.5257 11.7561 18.3952 13.9434 17.7796C14.6824 17.5717 15.5479 17.2995 16.4646 16.9682C16.2513 16.6707 16.0264 16.3724 15.7896 16.0747C15.7104 15.9742 15.6301 15.8752 15.5496 15.7775ZM17.1451 17.9766C16.8289 18.1901 16.5639 18.3605 16.3784 18.468C15.3039 19.0892 10.0654 22.6653 8.87365 23.4879C7.68191 24.3106 4.37418 27.4334 3.40041 28.34L3.36683 28.7091C6.50639 25.8885 7.49135 25.1929 8.73934 24.2434C10.2839 23.0682 13.4792 20.894 14.5652 20.1973C15.6033 19.5313 16.5396 18.9188 17.3798 18.3583C17.3661 18.3354 17.3524 18.3124 17.3387 18.2892C17.2755 18.1854 17.2108 18.0813 17.1451 17.9766ZM22.0528 12.7933C20.5233 13.6898 18.1127 14.7719 15.774 15.69C15.8299 15.7585 15.8856 15.8276 15.941 15.8973C16.2024 16.2264 16.4489 16.5577 16.6809 16.8893C18.5193 16.2121 20.5365 15.3032 22.137 14.2033C21.3745 14.9258 18.8536 16.8098 17.3166 17.8599C17.3958 17.9889 17.4725 18.1179 17.5466 18.2464C19.8753 16.6881 21.4422 15.5411 22.3553 14.7741C23.6145 13.7164 26.4854 11.3491 27.5767 8.17599C25.6625 10.6107 23.3993 12.0039 22.0528 12.7933Z" fill="#FC3D21"/>
<path d="M11.4398 21.2491C11.1921 20.9374 10.8496 20.5199 10.5925 20.1961C10.2486 19.7633 9.93042 19.3259 9.63885 18.8891C9.54371 18.9129 9.44885 18.9367 9.354 18.9605C9.70601 19.5098 10.0969 20.0582 10.5228 20.5943C10.834 20.9861 11.1169 21.3014 11.2618 21.4976C11.2912 21.5373 11.3494 21.6252 11.428 21.7421C11.5187 21.6806 11.6102 21.6185 11.7025 21.5558C11.6132 21.4587 11.5251 21.3566 11.4398 21.2491ZM13.2474 22.89C13.044 22.6974 12.5506 22.3759 12.0372 21.8935C11.9238 21.9713 11.8094 22.0502 11.6947 22.1297C12.0263 22.597 12.4779 23.1709 12.8316 23.3382C13.3644 23.5906 13.5079 23.1368 13.2474 22.89ZM15.9401 15.8973C13.0042 12.202 9.41779 10.1719 7.87152 11.4006C6.67054 12.3548 7.16358 15.1435 8.81898 18.0729C8.90461 18.0435 8.98939 18.0147 9.07334 17.9861C7.40254 15.132 6.94532 12.4796 8.07802 11.5794C9.50146 10.4484 12.9385 12.4863 15.7893 16.0744C16.3794 16.8171 16.8982 17.5625 17.3375 18.2892C19.0198 21.0734 19.536 23.5912 18.3737 24.619C18.018 24.9335 16.9312 25.0569 15.5075 24.4161C15.4876 24.441 15.5195 24.5084 15.5444 24.5249C16.7734 25.0191 17.9506 25.2074 18.5449 24.7354C19.9731 23.6004 18.8759 19.5926 15.9401 15.8973Z" fill="white"/>
<path d="M3.34863 16.3358H5.22901L6.80719 19.0136C6.80719 19.0136 6.80719 17.0745 6.80719 16.9234C6.80719 16.6884 6.50918 16.382 6.40425 16.3358C6.53017 16.3358 7.62985 16.3358 7.7054 16.3358C7.62565 16.3568 7.36962 16.6674 7.36962 16.9234C7.36962 17.0493 7.36962 19.8615 7.36962 19.9958C7.36962 20.1847 7.64244 20.4449 7.77256 20.5456H5.95934L4.35598 17.8552C4.35598 17.8552 4.35598 19.8615 4.35598 19.9706C4.35598 20.1805 4.56164 20.382 4.77571 20.554H3.39061C3.58788 20.4701 3.77675 20.2057 3.79354 19.9958C3.81033 19.7859 3.79354 17.0787 3.79354 16.9612C3.79354 16.7051 3.5459 16.4953 3.34863 16.3358Z" fill="white"/>
<path d="M20.5501 20.5456H23.0517C22.9132 20.5121 22.7579 20.3484 22.674 20.1301C22.59 19.9119 21.2637 16.3358 21.2637 16.3358H20.3126C20.0428 16.53 19.7538 16.7348 19.4451 16.9505C19.4443 16.9584 19.4434 16.9662 19.442 16.9738C19.4006 17.2256 18.6563 19.9214 18.611 20.0546C18.548 20.2392 18.2248 20.4449 18.0947 20.554H19.442C19.3077 20.4029 19.1986 20.256 19.2238 20.0881C19.249 19.9203 19.3245 19.5845 19.3245 19.5845H20.718C20.781 19.7524 20.828 19.9032 20.8523 20.0462C20.8817 20.2183 20.7054 20.4113 20.5501 20.5456ZM19.4504 19.0472L19.9205 17.511L20.5417 19.0472H19.4504ZM19.2386 16.4891C19.3077 16.4382 19.3771 16.387 19.4462 16.3358H19.0811C19.1175 16.3694 19.1776 16.4222 19.2386 16.4891Z" fill="white"/>
<path d="M9.67106 20.0881C9.69624 19.9203 9.77179 19.5845 9.77179 19.5845H11.1653C11.2282 19.7524 11.2753 19.9032 11.2996 20.0462C11.329 20.2183 11.1527 20.4113 10.9974 20.5456H13.1998C13.2457 20.5149 13.2913 20.4841 13.337 20.4536C13.2516 20.378 13.173 20.2647 13.1212 20.1301C13.0373 19.9119 11.7109 16.3358 11.7109 16.3358H9.52835C9.63328 16.4323 9.93549 16.6926 9.88932 16.9738C9.84818 17.2256 9.10359 19.9214 9.05826 20.0546C8.9953 20.2392 8.67211 20.4449 8.54199 20.554H9.88932C9.755 20.4029 9.64587 20.256 9.67106 20.0881ZM10.3678 17.511L10.989 19.0472H9.89771L10.3678 17.511Z" fill="white"/>
<path d="M17.2783 18.4255C16.8675 18.6991 16.4341 18.9848 15.9774 19.2831C16.1822 19.3824 16.3454 19.5072 16.361 19.6684C16.3901 19.9712 15.7818 20.1175 15.232 20.0546C15.122 20.042 15.014 20.0131 14.911 19.9745C14.7969 20.0481 14.6816 20.1223 14.5646 20.1973C14.4457 20.2737 14.3013 20.3677 14.1365 20.4762V20.9108C14.2456 20.6967 14.4843 20.5051 14.6695 20.4953C14.7493 20.4911 15.0263 20.7471 16.168 20.6842C16.722 20.6537 17.7923 20.063 17.7755 19.383C17.7655 18.9812 17.5556 18.6678 17.2783 18.4255ZM14.1362 19.4753V19.918C14.2372 19.8506 14.3368 19.7843 14.4345 19.7196C14.2809 19.6127 14.172 19.5128 14.1362 19.4753ZM16.8879 18.1476C16.7816 18.0846 16.6739 18.0295 16.5706 17.9808C16.0334 17.729 15.4709 17.6828 15.3534 17.3428C15.2706 17.103 15.5045 16.8811 16.0754 16.8895C16.6462 16.8979 17.175 17.2379 17.3177 17.3596V16.2767C17.2758 16.3187 17.0916 16.53 16.9232 16.495C16.6 16.4278 16.0502 16.3403 15.4206 16.3439C14.6986 16.3481 14.0774 16.906 14.0565 17.6115C14.0271 18.5978 14.8162 18.8665 15.2611 19.0218C15.307 19.0377 15.3593 19.0548 15.4161 19.073C15.8428 18.7954 16.1803 18.5816 16.3778 18.4677C16.5105 18.3913 16.6842 18.2816 16.8879 18.1476Z" fill="white"/>
</g>
<path d="M48.5041 10.6293V26.2991H45.6425L38.8252 16.4366H38.7105V26.2991H35.3975V10.6293H38.3049L45.0687 20.4841H45.2064V10.6293H48.5041Z" fill="black"/>
<path d="M53.2959 26.2991H49.7457L55.1551 10.6293H59.4245L64.8263 26.2991H61.2761L57.351 14.2101H57.2286L53.2959 26.2991ZM53.074 20.1398H61.4598V22.7259H53.074V20.1398Z" fill="black"/>
<path d="M74.2089 15.1359C74.1477 14.5187 73.885 14.0392 73.4208 13.6974C72.9566 13.3557 72.3267 13.1848 71.5309 13.1848C70.9902 13.1848 70.5337 13.2613 70.1613 13.4143C69.789 13.5623 69.5033 13.7688 69.3044 14.0341C69.1106 14.2993 69.0137 14.6003 69.0137 14.9369C69.0035 15.2175 69.0621 15.4623 69.1896 15.6715C69.3223 15.8806 69.5033 16.0617 69.7329 16.2147C69.9624 16.3626 70.2277 16.4927 70.5286 16.6049C70.8296 16.712 71.1509 16.8039 71.4927 16.8804L72.9005 17.217C73.584 17.3701 74.2114 17.5741 74.7827 17.8291C75.354 18.0842 75.8488 18.3979 76.2671 18.7702C76.6853 19.1426 77.0092 19.5813 77.2388 20.0863C77.4734 20.5912 77.5933 21.1702 77.5984 21.8231C77.5933 22.7821 77.3484 23.6135 76.8639 24.3174C76.3844 25.0162 75.6907 25.5595 74.7827 25.9471C73.8799 26.3297 72.7908 26.521 71.5156 26.521C70.2506 26.521 69.1488 26.3271 68.2103 25.9395C67.2768 25.5518 66.5474 24.978 66.022 24.2179C65.5017 23.4528 65.2288 22.5066 65.2033 21.3793H68.4092C68.4449 21.9047 68.5954 22.3434 68.8606 22.6953C69.131 23.0422 69.4906 23.3049 69.9395 23.4834C70.3934 23.6569 70.9061 23.7436 71.4774 23.7436C72.0385 23.7436 72.5256 23.662 72.9388 23.4987C73.357 23.3355 73.6809 23.1085 73.9105 22.8178C74.14 22.527 74.2548 22.1929 74.2548 21.8154C74.2548 21.4635 74.1502 21.1676 73.9411 20.9279C73.737 20.6882 73.4361 20.4841 73.0382 20.3158C72.6455 20.1475 72.1634 19.9944 71.5921 19.8567L69.8859 19.4282C68.5648 19.1069 67.5217 18.6045 66.7565 17.9209C65.9914 17.2374 65.6114 16.3167 65.6165 15.1588C65.6114 14.2101 65.8639 13.3812 66.374 12.6722C66.8891 11.9631 67.5956 11.4097 68.4934 11.0118C69.3911 10.614 70.4113 10.415 71.5539 10.415C72.7169 10.415 73.7319 10.614 74.5991 11.0118C75.4713 11.4097 76.1497 11.9631 76.6343 12.6722C77.1189 13.3812 77.3688 14.2024 77.3842 15.1359H74.2089Z" fill="black"/>
<path d="M81.5236 26.2991H77.9735L83.3829 10.6293H87.6523L93.0541 26.2991H89.5039L85.5788 14.2101H85.4564L81.5236 26.2991ZM81.3018 20.1398H89.6876V22.7259H81.3018V20.1398Z" fill="black"/>
<defs>
<clipPath id="clip0_43_17703">
<rect width="27.702" height="22.9451" fill="white" transform="translate(0 6.99545)"/>
</clipPath>
</defs>
</svg>
