<svg width="48" height="48" viewBox="0 0 48 48" fill="none" xmlns="http://www.w3.org/2000/svg">
<path d="M24 0.5C36.9787 0.5 47.5 11.0213 47.5 24C47.5 36.9787 36.9787 47.5 24 47.5C11.0213 47.5 0.5 36.9787 0.5 24C0.5 11.0213 11.0213 0.5 24 0.5Z" fill="#3091FA"/>
<path d="M24 0.5C36.9787 0.5 47.5 11.0213 47.5 24C47.5 36.9787 36.9787 47.5 24 47.5C11.0213 47.5 0.5 36.9787 0.5 24C0.5 11.0213 11.0213 0.5 24 0.5Z" stroke="#2B85E7"/>
<g filter="url(#filter0_i_104_17621)">
<path d="M12.3333 24L23.5826 29.6246C23.7356 29.7012 23.8122 29.7394 23.8924 29.7545C23.9635 29.7678 24.0365 29.7678 24.1076 29.7545C24.1878 29.7394 24.2643 29.7012 24.4174 29.6246L35.6667 24M12.3333 29.8333L23.5826 35.458C23.7356 35.5345 23.8122 35.5728 23.8924 35.5878C23.9635 35.6012 24.0365 35.6012 24.1076 35.5878C24.1878 35.5728 24.2643 35.5345 24.4174 35.458L35.6667 29.8333M12.3333 18.1667L23.5826 12.542C23.7356 12.4655 23.8122 12.4273 23.8924 12.4122C23.9635 12.3989 24.0365 12.3989 24.1076 12.4122C24.1878 12.4273 24.2643 12.4655 24.4174 12.542L35.6667 18.1667L24.4174 23.7913C24.2643 23.8678 24.1878 23.9061 24.1076 23.9211C24.0365 23.9345 23.9635 23.9345 23.8924 23.9211C23.8122 23.9061 23.7356 23.8678 23.5826 23.7913L12.3333 18.1667Z" stroke="white" stroke-width="2" stroke-linecap="round" stroke-linejoin="round"/>
</g>
<defs>
<filter id="filter0_i_104_17621" x="-90" y="-90" width="228" height="228" filterUnits="userSpaceOnUse" color-interpolation-filters="sRGB">
<feFlood flood-opacity="0" result="BackgroundImageFix"/>
<feBlend mode="normal" in="SourceGraphic" in2="BackgroundImageFix" result="shape"/>
<feColorMatrix in="SourceAlpha" type="matrix" values="0 0 0 0 0 0 0 0 0 0 0 0 0 0 0 0 0 0 127 0" result="hardAlpha"/>
<feOffset dy="4"/>
<feGaussianBlur stdDeviation="5"/>
<feComposite in2="hardAlpha" operator="arithmetic" k2="-1" k3="1"/>
<feColorMatrix type="matrix" values="0 0 0 0 0 0 0 0 0 0 0 0 0 0 0 0 0 0 0.1 0"/>
<feBlend mode="normal" in2="shape" result="effect1_innerShadow_104_17621"/>
</filter>
</defs>
</svg>
