<svg width="48" height="48" viewBox="0 0 48 48" fill="none" xmlns="http://www.w3.org/2000/svg">
<path d="M24 0.5C36.9787 0.5 47.5 11.0213 47.5 24C47.5 36.9787 36.9787 47.5 24 47.5C11.0213 47.5 0.5 36.9787 0.5 24C0.5 11.0213 11.0213 0.5 24 0.5Z" fill="#1F2227"/>
<path d="M24 0.5C36.9787 0.5 47.5 11.0213 47.5 24C47.5 36.9787 36.9787 47.5 24 47.5C11.0213 47.5 0.5 36.9787 0.5 24C0.5 11.0213 11.0213 0.5 24 0.5Z" stroke="#1D2025"/>
<g filter="url(#filter0_i_104_17619)">
<path d="M29.9678 27.9179C29.652 28.275 29.3206 28.6276 28.974 28.9741C23.9623 33.9858 17.6834 35.8326 14.9497 33.0989C13.0756 31.2248 13.3543 27.6843 15.3298 24.0283M18.0379 20.1795C18.3665 19.8058 18.7123 19.4369 19.0745 19.0746C24.0863 14.0629 30.3652 12.2162 33.0988 14.9498C34.9743 16.8253 34.6939 20.3693 32.7147 24.028M28.974 19.0746C33.9858 24.0863 35.8325 30.3652 33.0988 33.0989C30.3652 35.8326 24.0863 33.9858 19.0745 28.9741C14.0628 23.9624 12.2161 17.6835 14.9497 14.9498C17.6834 12.2162 23.9623 14.0629 28.974 19.0746ZM25.1667 24C25.1667 24.6443 24.6443 25.1667 24 25.1667C23.3557 25.1667 22.8333 24.6443 22.8333 24C22.8333 23.3557 23.3557 22.8333 24 22.8333C24.6443 22.8333 25.1667 23.3557 25.1667 24Z" stroke="white" stroke-width="2" stroke-linecap="round" stroke-linejoin="round"/>
</g>
<defs>
<filter id="filter0_i_104_17619" x="-90" y="-90" width="228" height="228" filterUnits="userSpaceOnUse" color-interpolation-filters="sRGB">
<feFlood flood-opacity="0" result="BackgroundImageFix"/>
<feBlend mode="normal" in="SourceGraphic" in2="BackgroundImageFix" result="shape"/>
<feColorMatrix in="SourceAlpha" type="matrix" values="0 0 0 0 0 0 0 0 0 0 0 0 0 0 0 0 0 0 127 0" result="hardAlpha"/>
<feOffset dy="4"/>
<feGaussianBlur stdDeviation="5"/>
<feComposite in2="hardAlpha" operator="arithmetic" k2="-1" k3="1"/>
<feColorMatrix type="matrix" values="0 0 0 0 0 0 0 0 0 0 0 0 0 0 0 0 0 0 0.1 0"/>
<feBlend mode="normal" in2="shape" result="effect1_innerShadow_104_17619"/>
</filter>
</defs>
</svg>
