<svg width="48" height="48" viewBox="0 0 48 48" fill="none" xmlns="http://www.w3.org/2000/svg">
<path d="M24 0.5C36.9787 0.5 47.5 11.0213 47.5 24C47.5 36.9787 36.9787 47.5 24 47.5C11.0213 47.5 0.5 36.9787 0.5 24C0.5 11.0213 11.0213 0.5 24 0.5Z" fill="#2367F0"/>
<path d="M24 0.5C36.9787 0.5 47.5 11.0213 47.5 24C47.5 36.9787 36.9787 47.5 24 47.5C11.0213 47.5 0.5 36.9787 0.5 24C0.5 11.0213 11.0213 0.5 24 0.5Z" stroke="#1859DC"/>
<g filter="url(#filter0_i_104_17606)">
<path d="M24 12.9167V24M24 24L33.9167 18.4907M24 24L14.0833 18.4907M24 24V35.0833M33.9167 29.5093L24.9065 24.5036C24.5757 24.3198 24.4102 24.2279 24.235 24.1919C24.08 24.16 23.92 24.16 23.765 24.1919C23.5898 24.2279 23.4243 24.3198 23.0935 24.5036L14.0833 29.5093M34.5 28.735V19.265C34.5 18.8653 34.5 18.6654 34.4411 18.4871C34.389 18.3294 34.3038 18.1847 34.1913 18.0625C34.064 17.9245 33.8893 17.8274 33.5399 17.6333L24.9065 12.837C24.5757 12.6531 24.4102 12.5612 24.235 12.5252C24.08 12.4933 23.92 12.4933 23.765 12.5252C23.5898 12.5612 23.4243 12.6531 23.0935 12.837L14.4601 17.6333C14.1107 17.8274 13.936 17.9245 13.8087 18.0625C13.6962 18.1847 13.611 18.3294 13.5589 18.4871C13.5 18.6654 13.5 18.8653 13.5 19.265V28.735C13.5 29.1347 13.5 29.3346 13.5589 29.5129C13.611 29.6706 13.6962 29.8153 13.8087 29.9375C13.936 30.0755 14.1107 30.1726 14.4601 30.3667L23.0935 35.163C23.4243 35.3468 23.5898 35.4388 23.765 35.4748C23.92 35.5067 24.08 35.5067 24.235 35.4748C24.4102 35.4388 24.5757 35.3468 24.9065 35.163L33.5399 30.3667C33.8893 30.1726 34.064 30.0755 34.1913 29.9375C34.3038 29.8153 34.389 29.6706 34.4411 29.5129C34.5 29.3346 34.5 29.1347 34.5 28.735Z" stroke="white" stroke-width="2" stroke-linecap="round" stroke-linejoin="round"/>
</g>
<defs>
<filter id="filter0_i_104_17606" x="-90" y="-90" width="228" height="228" filterUnits="userSpaceOnUse" color-interpolation-filters="sRGB">
<feFlood flood-opacity="0" result="BackgroundImageFix"/>
<feBlend mode="normal" in="SourceGraphic" in2="BackgroundImageFix" result="shape"/>
<feColorMatrix in="SourceAlpha" type="matrix" values="0 0 0 0 0 0 0 0 0 0 0 0 0 0 0 0 0 0 127 0" result="hardAlpha"/>
<feOffset dy="2"/>
<feGaussianBlur stdDeviation="5"/>
<feComposite in2="hardAlpha" operator="arithmetic" k2="-1" k3="1"/>
<feColorMatrix type="matrix" values="0 0 0 0 0 0 0 0 0 0 0 0 0 0 0 0 0 0 0.15 0"/>
<feBlend mode="normal" in2="shape" result="effect1_innerShadow_104_17606"/>
</filter>
</defs>
</svg>
