<svg width="48" height="48" viewBox="0 0 48 48" fill="none" xmlns="http://www.w3.org/2000/svg">
<path d="M24 0.5C36.9787 0.5 47.5 11.0213 47.5 24C47.5 36.9787 36.9787 47.5 24 47.5C11.0213 47.5 0.5 36.9787 0.5 24C0.5 11.0213 11.0213 0.5 24 0.5Z" fill="#159759"/>
<path d="M24 0.5C36.9787 0.5 47.5 11.0213 47.5 24C47.5 36.9787 36.9787 47.5 24 47.5C11.0213 47.5 0.5 36.9787 0.5 24C0.5 11.0213 11.0213 0.5 24 0.5Z" stroke="#118950"/>
<g filter="url(#filter0_i_112_1476)">
<path d="M16.9997 16.9999L22.2497 22.2499M16.9997 16.9999H13.4997L12.333 13.4999L13.4997 12.3333L16.9997 13.4999V16.9999ZM32.4685 13.1978L29.4029 16.2633C28.9409 16.7253 28.7099 16.9563 28.6234 17.2227C28.5472 17.457 28.5472 17.7095 28.6234 17.9438C28.7099 18.2102 28.9409 18.4412 29.4029 18.9032L29.6797 19.18C30.1418 19.642 30.3728 19.873 30.6392 19.9596C30.8735 20.0357 31.1259 20.0357 31.3602 19.9596C31.6266 19.873 31.8576 19.642 32.3196 19.18L35.1872 16.3124C35.496 17.064 35.6663 17.887 35.6663 18.7499C35.6663 22.2937 32.7935 25.1666 29.2497 25.1666C28.8224 25.1666 28.4049 25.1248 28.0011 25.0452C27.4339 24.9333 27.1503 24.8774 26.9784 24.8945C26.7956 24.9127 26.7055 24.9401 26.5436 25.0268C26.3913 25.1083 26.2385 25.2611 25.9329 25.5667L17.583 33.9166C16.6165 34.8831 15.0495 34.8831 14.083 33.9166C13.1165 32.9501 13.1165 31.3831 14.083 30.4166L22.4329 22.0667C22.7385 21.7611 22.8913 21.6083 22.9728 21.456C23.0595 21.294 23.0869 21.204 23.1051 21.0212C23.1222 20.8493 23.0663 20.5657 22.9544 19.9985C22.8748 19.5947 22.833 19.1772 22.833 18.7499C22.833 15.2061 25.7058 12.3333 29.2497 12.3333C30.4228 12.3333 31.5223 12.648 32.4685 13.1978ZM23.9997 27.4999L30.4163 33.9165C31.3828 34.883 32.9498 34.883 33.9163 33.9165C34.8828 32.95 34.8828 31.3829 33.9163 30.4165L28.6375 25.1378C28.2639 25.1024 27.8995 25.035 27.5473 24.9383C27.0934 24.8137 26.5954 24.9041 26.2626 25.237L23.9997 27.4999Z" stroke="white" stroke-width="2" stroke-linecap="round" stroke-linejoin="round"/>
</g>
<defs>
<filter id="filter0_i_112_1476" x="-90" y="-90" width="228" height="228" filterUnits="userSpaceOnUse" color-interpolation-filters="sRGB">
<feFlood flood-opacity="0" result="BackgroundImageFix"/>
<feBlend mode="normal" in="SourceGraphic" in2="BackgroundImageFix" result="shape"/>
<feColorMatrix in="SourceAlpha" type="matrix" values="0 0 0 0 0 0 0 0 0 0 0 0 0 0 0 0 0 0 127 0" result="hardAlpha"/>
<feOffset dy="4"/>
<feGaussianBlur stdDeviation="5"/>
<feComposite in2="hardAlpha" operator="arithmetic" k2="-1" k3="1"/>
<feColorMatrix type="matrix" values="0 0 0 0 0 0 0 0 0 0 0 0 0 0 0 0 0 0 0.1 0"/>
<feBlend mode="normal" in2="shape" result="effect1_innerShadow_112_1476"/>
</filter>
</defs>
</svg>
