<svg width="48" height="48" viewBox="0 0 48 48" fill="none" xmlns="http://www.w3.org/2000/svg">
<path d="M24 0.5C36.9787 0.5 47.5 11.0213 47.5 24C47.5 36.9787 36.9787 47.5 24 47.5C11.0213 47.5 0.5 36.9787 0.5 24C0.5 11.0213 11.0213 0.5 24 0.5Z" fill="#2367F0"/>
<path d="M24 0.5C36.9787 0.5 47.5 11.0213 47.5 24C47.5 36.9787 36.9787 47.5 24 47.5C11.0213 47.5 0.5 36.9787 0.5 24C0.5 11.0213 11.0213 0.5 24 0.5Z" stroke="#1859DC"/>
<g filter="url(#filter0_i_112_1851)">
<path d="M19.8 13.5H15.3667C14.7133 13.5 14.3866 13.5 14.137 13.6272C13.9175 13.739 13.739 13.9175 13.6272 14.137C13.5 14.3866 13.5 14.7133 13.5 15.3667V19.8C13.5 20.4534 13.5 20.7801 13.6272 21.0297C13.739 21.2492 13.9175 21.4277 14.137 21.5395C14.3866 21.6667 14.7133 21.6667 15.3667 21.6667H19.8C20.4534 21.6667 20.7801 21.6667 21.0297 21.5395C21.2492 21.4277 21.4277 21.2492 21.5395 21.0297C21.6667 20.7801 21.6667 20.4534 21.6667 19.8V15.3667C21.6667 14.7133 21.6667 14.3866 21.5395 14.137C21.4277 13.9175 21.2492 13.739 21.0297 13.6272C20.7801 13.5 20.4534 13.5 19.8 13.5Z" stroke="white" stroke-width="2" stroke-linecap="round" stroke-linejoin="round"/>
<path d="M32.6333 13.5H28.2C27.5466 13.5 27.2199 13.5 26.9703 13.6272C26.7508 13.739 26.5723 13.9175 26.4605 14.137C26.3333 14.3866 26.3333 14.7133 26.3333 15.3667V19.8C26.3333 20.4534 26.3333 20.7801 26.4605 21.0297C26.5723 21.2492 26.7508 21.4277 26.9703 21.5395C27.2199 21.6667 27.5466 21.6667 28.2 21.6667H32.6333C33.2867 21.6667 33.6134 21.6667 33.863 21.5395C34.0825 21.4277 34.261 21.2492 34.3728 21.0297C34.5 20.7801 34.5 20.4534 34.5 19.8V15.3667C34.5 14.7133 34.5 14.3866 34.3728 14.137C34.261 13.9175 34.0825 13.739 33.863 13.6272C33.6134 13.5 33.2867 13.5 32.6333 13.5Z" stroke="white" stroke-width="2" stroke-linecap="round" stroke-linejoin="round"/>
<path d="M32.6333 26.3333H28.2C27.5466 26.3333 27.2199 26.3333 26.9703 26.4605C26.7508 26.5723 26.5723 26.7508 26.4605 26.9703C26.3333 27.2199 26.3333 27.5466 26.3333 28.2V32.6333C26.3333 33.2867 26.3333 33.6134 26.4605 33.863C26.5723 34.0825 26.7508 34.261 26.9703 34.3728C27.2199 34.5 27.5466 34.5 28.2 34.5H32.6333C33.2867 34.5 33.6134 34.5 33.863 34.3728C34.0825 34.261 34.261 34.0825 34.3728 33.863C34.5 33.6134 34.5 33.2867 34.5 32.6333V28.2C34.5 27.5466 34.5 27.2199 34.3728 26.9703C34.261 26.7508 34.0825 26.5723 33.863 26.4605C33.6134 26.3333 33.2867 26.3333 32.6333 26.3333Z" stroke="white" stroke-width="2" stroke-linecap="round" stroke-linejoin="round"/>
<path d="M19.8 26.3333H15.3667C14.7133 26.3333 14.3866 26.3333 14.137 26.4605C13.9175 26.5723 13.739 26.7508 13.6272 26.9703C13.5 27.2199 13.5 27.5466 13.5 28.2V32.6333C13.5 33.2867 13.5 33.6134 13.6272 33.863C13.739 34.0825 13.9175 34.261 14.137 34.3728C14.3866 34.5 14.7133 34.5 15.3667 34.5H19.8C20.4534 34.5 20.7801 34.5 21.0297 34.3728C21.2492 34.261 21.4277 34.0825 21.5395 33.863C21.6667 33.6134 21.6667 33.2867 21.6667 32.6333V28.2C21.6667 27.5466 21.6667 27.2199 21.5395 26.9703C21.4277 26.7508 21.2492 26.5723 21.0297 26.4605C20.7801 26.3333 20.4534 26.3333 19.8 26.3333Z" stroke="white" stroke-width="2" stroke-linecap="round" stroke-linejoin="round"/>
</g>
<defs>
<filter id="filter0_i_112_1851" x="-90" y="-90" width="228" height="228" filterUnits="userSpaceOnUse" color-interpolation-filters="sRGB">
<feFlood flood-opacity="0" result="BackgroundImageFix"/>
<feBlend mode="normal" in="SourceGraphic" in2="BackgroundImageFix" result="shape"/>
<feColorMatrix in="SourceAlpha" type="matrix" values="0 0 0 0 0 0 0 0 0 0 0 0 0 0 0 0 0 0 127 0" result="hardAlpha"/>
<feOffset dy="2"/>
<feGaussianBlur stdDeviation="5"/>
<feComposite in2="hardAlpha" operator="arithmetic" k2="-1" k3="1"/>
<feColorMatrix type="matrix" values="0 0 0 0 0 0 0 0 0 0 0 0 0 0 0 0 0 0 0.15 0"/>
<feBlend mode="normal" in2="shape" result="effect1_innerShadow_112_1851"/>
</filter>
</defs>
</svg>
