<svg width="48" height="48" viewBox="0 0 48 48" fill="none" xmlns="http://www.w3.org/2000/svg">
<path d="M24 0.5C36.9787 0.5 47.5 11.0213 47.5 24C47.5 36.9787 36.9787 47.5 24 47.5C11.0213 47.5 0.5 36.9787 0.5 24C0.5 11.0213 11.0213 0.5 24 0.5Z" fill="#474EE7"/>
<path d="M24 0.5C36.9787 0.5 47.5 11.0213 47.5 24C47.5 36.9787 36.9787 47.5 24 47.5C11.0213 47.5 0.5 36.9787 0.5 24C0.5 11.0213 11.0213 0.5 24 0.5Z" stroke="#4047D4"/>
<g filter="url(#filter0_i_112_2149)">
<path d="M13.5 13.5H13.5117M13.5 24H13.5117M13.5 34.5H13.5117M13.5 29.25H13.5117M13.5 18.75H13.5117M18.75 13.5H18.7617M18.75 24H18.7617M18.75 34.5H18.7617M29.25 13.5H29.2617M29.25 24H29.2617M29.25 34.5H29.2617M24 13.5H24.0117M24 24H24.0117M24 34.5H24.0117M24 29.25H24.0117M24 18.75H24.0117M34.5 13.5H34.5117M34.5 24H34.5117M34.5 34.5H34.5117M34.5 29.25H34.5117M34.5 18.75H34.5117" stroke="white" stroke-width="2" stroke-linecap="round" stroke-linejoin="round"/>
</g>
<defs>
<filter id="filter0_i_112_2149" x="-90" y="-90" width="228" height="228" filterUnits="userSpaceOnUse" color-interpolation-filters="sRGB">
<feFlood flood-opacity="0" result="BackgroundImageFix"/>
<feBlend mode="normal" in="SourceGraphic" in2="BackgroundImageFix" result="shape"/>
<feColorMatrix in="SourceAlpha" type="matrix" values="0 0 0 0 0 0 0 0 0 0 0 0 0 0 0 0 0 0 127 0" result="hardAlpha"/>
<feOffset dy="4"/>
<feGaussianBlur stdDeviation="5"/>
<feComposite in2="hardAlpha" operator="arithmetic" k2="-1" k3="1"/>
<feColorMatrix type="matrix" values="0 0 0 0 0 0 0 0 0 0 0 0 0 0 0 0 0 0 0.1 0"/>
<feBlend mode="normal" in2="shape" result="effect1_innerShadow_112_2149"/>
</filter>
</defs>
</svg>
