<svg width="48" height="48" viewBox="0 0 48 48" fill="none" xmlns="http://www.w3.org/2000/svg">
<path d="M24 0.5C36.9787 0.5 47.5 11.0213 47.5 24C47.5 36.9787 36.9787 47.5 24 47.5C11.0213 47.5 0.5 36.9787 0.5 24C0.5 11.0213 11.0213 0.5 24 0.5Z" fill="#552BBB"/>
<path d="M24 0.5C36.9787 0.5 47.5 11.0213 47.5 24C47.5 36.9787 36.9787 47.5 24 47.5C11.0213 47.5 0.5 36.9787 0.5 24C0.5 11.0213 11.0213 0.5 24 0.5Z" stroke="#4C26AC"/>
<g filter="url(#filter0_i_112_3591)">
<path d="M33.9167 28.6667H19.3333M19.3333 28.6667V14.0833M19.3333 28.6667L14.0833 33.9167M14.0833 19.3333H28.6667M28.6667 19.3333V33.9167M28.6667 19.3333L33.9167 14.0833M34.5 27.8935V14.4333C34.5 14.1066 34.5 13.9433 34.4364 13.8185C34.3805 13.7087 34.2913 13.6195 34.1815 13.5636C34.0567 13.5 33.8934 13.5 33.5667 13.5H20.1065C19.8212 13.5 19.6785 13.5 19.5442 13.5322C19.4252 13.5608 19.3114 13.608 19.207 13.6719C19.0893 13.7441 18.9884 13.845 18.7866 14.0467L14.0467 18.7866C13.845 18.9884 13.7441 19.0893 13.6719 19.207C13.608 19.3114 13.5608 19.4252 13.5322 19.5442C13.5 19.6785 13.5 19.8212 13.5 20.1065V33.5667C13.5 33.8934 13.5 34.0567 13.5636 34.1815C13.6195 34.2913 13.7087 34.3805 13.8185 34.4364C13.9433 34.5 14.1066 34.5 14.4333 34.5H27.8935C28.1788 34.5 28.3215 34.5 28.4558 34.4678C28.5748 34.4392 28.6886 34.392 28.793 34.3281C28.9107 34.2559 29.0116 34.155 29.2134 33.9533L33.9533 29.2134C34.155 29.0116 34.2559 28.9107 34.3281 28.793C34.392 28.6886 34.4392 28.5748 34.4678 28.4558C34.5 28.3215 34.5 28.1788 34.5 27.8935Z" stroke="white" stroke-width="2" stroke-linecap="round" stroke-linejoin="round"/>
</g>
<defs>
<filter id="filter0_i_112_3591" x="-90" y="-90" width="228" height="228" filterUnits="userSpaceOnUse" color-interpolation-filters="sRGB">
<feFlood flood-opacity="0" result="BackgroundImageFix"/>
<feBlend mode="normal" in="SourceGraphic" in2="BackgroundImageFix" result="shape"/>
<feColorMatrix in="SourceAlpha" type="matrix" values="0 0 0 0 0 0 0 0 0 0 0 0 0 0 0 0 0 0 127 0" result="hardAlpha"/>
<feOffset dy="4"/>
<feGaussianBlur stdDeviation="5"/>
<feComposite in2="hardAlpha" operator="arithmetic" k2="-1" k3="1"/>
<feColorMatrix type="matrix" values="0 0 0 0 0 0 0 0 0 0 0 0 0 0 0 0 0 0 0.1 0"/>
<feBlend mode="normal" in2="shape" result="effect1_innerShadow_112_3591"/>
</filter>
</defs>
</svg>
